HIERARCHY
ROOT Hips
{
	OFFSET 0.000000 0.000000 0.000000 
	CHANNELS 6 Xposition Yposition Zposition Zrotation Yrotation Xrotation
	JOINT LeftUpLeg
	{
		OFFSET 1.363060 -1.794630 0.839290 
		CHANNELS 3 Zrotation Yrotation Xrotation
		JOINT LeftLeg
		{
			OFFSET 2.448110 -6.726130 0.000000 
			CHANNELS 3 Zrotation Yrotation Xrotation
			JOINT LeftFoot
			{
				OFFSET 2.562200 -7.039590 0.000000 
				CHANNELS 3 Zrotation Yrotation Xrotation
				JOINT LeftToeBase
				{
					OFFSET 0.157640 -0.433110 2.322550 
					CHANNELS 3 Zrotation Yrotation Xrotation
					End Site
					{
						OFFSET 0.000000 0.000000 0.000000 
					}
				}
			}
		}
	}
	JOINT RightUpLeg
	{
		OFFSET -1.305520 -1.794630 0.839290 
		CHANNELS 3 Zrotation Yrotation Xrotation
		JOINT RightLeg
		{
			OFFSET -2.542530 -6.985550 0.000000 
			CHANNELS 3 Zrotation Yrotation Xrotation
			JOINT RightFoot
			{
				OFFSET -2.568260 -7.056230 0.000000 
				CHANNELS 3 Zrotation Yrotation Xrotation
				JOINT RightToeBase
				{
					OFFSET -0.164730 -0.452590 2.363150 
					CHANNELS 3 Zrotation Yrotation Xrotation
					End Site
					{
						OFFSET 0.000000 0.000000 0.000000 
					}
				}
			}
		}
	}
	JOINT Spine
	{
		OFFSET 0.028270 2.035590 -0.193380 
		CHANNELS 3 Zrotation Yrotation Xrotation
		JOINT Spine1
		{
			OFFSET 0.056720 2.048850 -0.042750 
			CHANNELS 3 Zrotation Yrotation Xrotation
			JOINT Neck1
			{
				OFFSET -0.054170 1.746240 0.172020 
				CHANNELS 3 Zrotation Yrotation Xrotation
				JOINT Head
				{
					OFFSET 0.104070 1.761360 -0.123970 
					CHANNELS 3 Zrotation Yrotation Xrotation
					End Site
					{
						OFFSET 0.000000 0.000000 0.000000 
					}
				}
			}
			JOINT LeftArm
			{
				OFFSET 3.362410 1.200890 -0.311210 
				CHANNELS 3 Zrotation Yrotation Xrotation
				JOINT LeftForeArm
				{
					OFFSET 4.983000 -0.000000 -0.000000 
					CHANNELS 3 Zrotation Yrotation Xrotation
					JOINT LeftHand
					{
						OFFSET 3.483560 -0.000000 -0.000000 
						CHANNELS 3 Zrotation Yrotation Xrotation
						JOINT LeftHandIndex1
						{
							OFFSET 0.715260 -0.000000 -0.000000 
							CHANNELS 3 Zrotation Yrotation Xrotation
							End Site
							{
								OFFSET 0.000000 0.000000 0.000000 
							}
						}
					}
				}
			}
			JOINT RightArm
			{
				OFFSET -3.136600 1.374050 -0.404650 
				CHANNELS 3 Zrotation Yrotation Xrotation
				JOINT RightForeArm
				{
					OFFSET -5.241900 -0.000000 -0.000000 
					CHANNELS 3 Zrotation Yrotation Xrotation
					JOINT RightHand
					{
						OFFSET -3.444170 -0.000000 -0.000000 
						CHANNELS 3 Zrotation Yrotation Xrotation
						JOINT RightHandIndex1
						{
							OFFSET -0.622530 -0.000000 -0.000000 
							CHANNELS 3 Zrotation Yrotation Xrotation
							End Site
							{
								OFFSET 0.000000 0.000000 0.000000 
							}
						}
					}
				}
			}
		}
	}
}
MOTION
Frames: 15
Frame Time: 0.041667
-5.956133 17.681074 10.251544 -179.410646 45.393628 -178.665876 -17.347034 3.783094 -14.821861 2.377528 11.487649 34.696772 2.167496 -9.965082 -6.839140 0.009700 -0.634700 -1.744300 16.609050 -2.633001 -8.380061 -2.530287 -10.650543 32.289079 -1.468795 2.852730 -8.660034 -0.396900 4.045100 -11.203500 1.320609 2.273857 0.854081 0.335487 1.097518 -3.581197 6.658652 -8.889629 18.975803 4.145900 -4.187600 14.002200 -83.448931 3.668535 16.383676 17.017038 -24.337922 -4.612557 -1.490597 -2.458519 5.869771 -7.125000 0.000000 0.000000 80.137383 -3.759932 20.402538 -20.477396 29.688299 -6.097638 0.586851 -0.015895 3.894436 7.125000 0.000000 0.000000 
-5.904419 17.664578 10.272796 -179.429679 45.007584 -178.873072 -17.293442 3.319373 -14.039834 2.159405 11.241654 33.886362 1.954741 -8.266655 -7.221347 0.005600 -0.481500 -1.323000 16.724962 -3.013689 -8.551364 -2.695318 -10.873693 33.026747 -1.590222 3.352259 -8.723581 -0.307700 3.566200 -9.859400 1.299539 2.257091 0.867959 0.381138 1.084899 -3.558233 6.848780 -8.984773 19.130547 4.216100 -4.187100 14.072800 -83.281040 3.736498 16.845072 16.990182 -24.316284 -4.604430 -1.534547 -2.386701 5.786541 -7.125000 0.000000 0.000000 80.337571 -3.836265 20.104598 -20.437599 29.643267 -6.077006 0.580521 -0.022038 4.245655 7.125000 0.000000 0.000000 
-5.854121 17.658304 10.292227 -179.358280 44.638626 -179.011201 -17.135844 3.030104 -13.370918 1.982210 11.011374 33.145479 1.872380 -7.648604 -7.297959 0.000000 -0.016300 -0.044800 16.898391 -3.450175 -8.759187 -2.875555 -11.110205 33.824302 -1.690940 3.818042 -8.651464 -0.261700 3.291100 -9.090100 1.308663 2.302076 0.852904 0.458061 1.102219 -3.640326 6.997566 -9.107377 19.330792 4.272600 -4.205700 14.168600 -83.174084 3.887828 17.401155 17.012555 -24.357533 -4.625106 -1.561902 -2.313567 5.690415 -7.125000 0.000000 0.000000 80.431535 -3.955870 19.791662 -20.368547 29.564696 -6.040036 0.574223 -0.041149 4.494692 7.125000 0.000000 0.000000 
-5.804027 17.655268 10.310646 -179.576463 44.282565 -179.311934 -17.165918 2.736211 -12.680284 1.851493 10.809236 32.532235 1.909907 -7.999121 -7.061723 0.040500 1.299700 3.573700 16.838512 -3.926960 -9.095800 -3.074843 -11.372826 34.711717 -1.714355 4.000431 -8.428675 -0.297200 3.505500 -9.689600 1.307526 2.301868 0.842849 0.645085 1.099517 -3.666706 7.013663 -9.090676 19.587917 4.286400 -4.180500 14.292300 -83.148494 4.074592 17.943207 17.104676 -24.494254 -4.685707 -1.505530 -2.364527 5.344465 -7.125000 0.000000 0.000000 80.481388 -4.006257 19.488479 -20.313330 29.501882 -6.012369 0.560102 -0.051706 4.824330 7.125000 0.000000 0.000000 
-5.753729 17.648791 10.332809 -179.795651 43.881765 -179.553068 -17.146741 2.390275 -12.078687 1.740920 10.633360 32.004528 1.951443 -8.395216 -6.792321 0.135700 2.374000 6.540500 16.818002 -4.225420 -9.521046 -3.299884 -11.668923 35.720538 -1.701104 4.018685 -8.250167 -0.342000 3.758100 -10.397100 1.303198 2.245345 0.838784 0.854957 1.068436 -3.632041 7.029113 -9.037280 19.805621 4.303000 -4.141700 14.399100 -83.112266 4.243420 18.458557 17.201670 -24.639983 -4.753586 -1.355968 -2.491015 4.989052 -7.125000 0.000000 0.000000 80.607883 -3.966885 19.000006 -20.222590 29.396047 -5.964312 0.547097 -0.068547 5.482551 7.125000 0.000000 0.000000 
-5.706670 17.639379 10.356895 -179.874321 43.515402 -179.732815 -16.991420 2.105894 -11.565342 1.633196 10.470066 31.502536 1.956561 -8.403137 -6.756167 0.137700 2.391900 6.590000 16.879142 -4.426626 -9.959217 -3.559489 -11.995488 36.855680 -1.731986 4.233079 -8.079617 -0.394100 4.030900 -11.163600 1.274928 2.235172 0.835053 0.913117 1.061373 -3.662554 7.081194 -9.082206 19.873439 4.311400 -4.139500 14.429300 -82.947413 4.334453 18.920482 17.260868 -24.732734 -4.802651 -1.188108 -2.579305 4.845144 -7.125000 0.000000 0.000000 80.885490 -3.855015 18.342251 -20.090083 29.236795 -5.891446 0.538378 -0.095813 6.088568 7.125000 0.000000 0.000000 
-5.662243 17.631587 10.380070 179.863636 43.088266 179.988507 -16.961299 1.735192 -11.054001 1.530157 10.313053 31.025378 1.965376 -8.443861 -6.760224 0.115400 2.189900 6.030800 16.724095 -4.815634 -10.564334 -3.859868 -12.349383 38.111864 -1.841387 4.863731 -7.666519 -0.411200 4.116500 -11.404600 1.246436 2.150285 0.796366 1.057857 1.019305 -3.786508 7.140651 -9.064962 20.001611 4.346700 -4.115700 14.488100 -82.798849 4.436041 19.318720 17.239992 -24.719073 -4.798327 -1.191523 -2.563536 4.594697 -7.125000 0.000000 0.000000 81.084264 -3.864368 17.944562 -20.048840 29.174350 -5.863671 0.543562 -0.101158 6.112045 7.125000 0.000000 0.000000 
-5.617916 17.626729 10.401120 179.508712 42.529490 179.649332 -17.011163 1.297371 -10.578130 1.428888 10.160712 30.552987 1.998608 -8.544826 -6.970696 0.045300 1.373600 3.777300 16.430817 -5.446166 -11.300512 -4.196732 -12.723970 39.475735 -1.982650 5.726211 -7.038580 -0.398600 4.053700 -11.227800 1.214459 1.997232 0.796473 1.228876 0.943150 -3.781555 7.206239 -9.030192 20.038087 4.390200 -4.094000 14.493000 -82.741779 4.417539 19.434914 17.151124 -24.608807 -4.741997 -1.356896 -2.486634 4.884765 -7.125000 0.000000 0.000000 81.273214 -3.817975 17.655881 -20.058020 29.167694 -5.860464 0.560115 -0.090746 5.897690 7.125000 0.000000 0.000000 
-5.576424 17.622580 10.428141 179.422358 41.971161 179.528430 -16.816489 0.966800 -10.244597 1.333544 10.009110 30.077544 2.060511 -8.859495 -7.000795 0.004600 0.437500 1.202200 16.360260 -5.973895 -12.148997 -4.563758 -13.122308 40.962559 -2.070389 6.418263 -6.318927 -0.418200 4.151000 -11.501800 1.154649 1.889857 0.830775 1.185737 0.887134 -3.659043 7.273210 -9.122833 20.022220 4.383800 -4.105900 14.522700 -82.491985 4.256251 19.703162 17.069107 -24.509830 -4.695058 -1.443986 -2.454076 5.025194 -7.125000 0.000000 0.000000 81.647991 -3.636420 17.126645 -20.070474 29.177658 -5.864366 0.563727 -0.098430 5.818584 7.125000 0.000000 0.000000 
-5.535336 17.625616 10.453947 179.297891 41.480011 179.403820 -16.637723 0.686294 -9.851332 1.248190 9.846419 29.607139 2.141551 -9.629442 -6.491499 0.029100 1.102200 3.029900 16.224959 -6.513143 -13.120223 -4.962514 -13.539602 42.551259 -2.143312 7.090119 -5.527321 -0.528300 4.657700 -12.934900 1.180059 1.736788 0.701559 1.448839 0.818086 -4.068112 7.045592 -8.994483 20.129425 4.260300 -4.053100 14.548500 -82.528263 4.571166 19.762424 17.031154 -24.471249 -4.676888 -1.455998 -2.463769 4.867560 -7.125000 0.000000 0.000000 81.796212 -3.868584 16.697502 -20.076089 29.163183 -5.860948 0.562593 -0.106801 5.875795 7.125000 0.000000 0.000000 
-5.495260 17.626628 10.472265 178.985547 41.087311 179.158149 -16.661290 0.444236 -9.318114 1.161595 9.676216 29.126076 2.204153 -10.392372 -5.957935 0.126000 2.287900 6.302100 15.814067 -7.008689 -14.100051 -5.402614 -13.975554 44.253516 -2.305346 8.348245 -4.494628 -0.583500 4.891200 -13.598400 1.108124 1.683062 0.758096 1.435230 0.787888 -3.874968 7.083365 -8.967896 19.996136 4.253400 -4.026400 14.479500 -82.343223 4.381130 20.003701 16.984824 -24.416936 -4.652779 -1.455068 -2.500274 4.636299 -7.125000 0.000000 0.000000 82.126702 -3.612983 16.012941 -20.063997 29.139778 -5.849672 0.569518 -0.095964 6.089998 7.125000 0.000000 0.000000 
-5.455386 17.621466 10.490987 178.593249 40.731017 178.803740 -16.786113 0.317234 -8.867440 1.063649 9.496568 28.600735 2.242222 -10.707773 -5.917903 0.119700 2.230300 6.142400 15.255066 -7.291653 -14.984696 -5.870397 -14.415755 46.040286 -2.449274 9.707477 -3.252139 -0.677100 5.261500 -14.656100 1.070392 1.625486 0.714677 1.589907 0.763851 -4.063820 7.257617 -8.913032 19.827933 4.382600 -4.015300 14.345100 -82.354304 4.592030 19.992968 17.015832 -24.466882 -4.673607 -1.429833 -2.511067 4.728854 -7.125000 0.000000 0.000000 82.329274 -3.796936 15.451427 -20.163650 29.252263 -5.902730 0.562654 -0.091927 6.164845 7.125000 0.000000 0.000000 
-5.416322 17.617924 10.512442 178.210815 40.389146 178.442427 -16.912924 0.261019 -8.558400 0.951714 9.303678 28.013560 2.275126 -10.875102 -6.014892 0.050800 1.454900 4.001500 14.640605 -7.469435 -15.882015 -6.354423 -14.851301 47.866969 -2.550346 10.970031 -1.962254 -0.817000 5.767700 -16.111800 0.952605 1.697249 0.852830 1.438496 0.793610 -3.699156 7.441480 -9.138003 19.599170 4.439200 -4.100600 14.285500 -82.117449 4.217943 20.209476 16.933558 -24.354820 -4.627470 -1.489488 -2.431368 4.917609 -7.125000 0.000000 0.000000 82.723727 -3.410880 14.592831 -20.182819 29.284205 -5.915171 0.556704 -0.100528 6.084688 7.125000 0.000000 0.000000 
-5.380092 17.621770 10.532986 178.013025 40.017382 178.243215 -16.896461 0.210711 -8.249244 0.838453 9.100730 27.405971 2.301937 -11.051729 -5.966337 0.023800 0.995100 2.735200 14.111062 -7.542696 -16.822386 -6.831195 -15.262344 49.652713 -2.638116 12.371088 -0.551140 -0.988300 6.327400 -17.737400 0.898309 1.639999 0.892038 1.389712 0.764992 -3.621357 7.421287 -9.165841 19.560593 4.420900 -4.113500 14.313600 -82.014295 4.141849 20.262984 16.863758 -24.262913 -4.588072 -1.563294 -2.336999 4.901760 -7.125000 0.000000 0.000000 82.989896 -3.177050 14.087640 -20.193598 29.292205 -5.919344 0.554178 -0.103072 6.116211 7.125000 0.000000 0.000000 
-5.344570 17.621871 10.555453 177.789473 39.682371 178.032052 -16.923479 0.123488 -7.871138 0.735238 8.910358 26.846383 2.315112 -11.139930 -5.949033 0.016600 0.832300 2.287400 13.517276 -7.518870 -17.704142 -7.281399 -15.633247 51.318710 -2.721338 13.992896 0.874095 -1.239600 7.060000 -19.893100 0.840351 1.584904 0.905534 1.348311 0.739098 -3.641692 7.451924 -9.105695 19.442869 4.439900 -4.087600 14.270800 -81.875456 4.063997 20.259140 16.863110 -24.266088 -4.587042 -1.539990 -2.405926 4.701971 -7.125000 0.000000 0.000000 83.189774 -3.150013 13.917206 -20.301803 29.415226 -5.976536 0.557465 -0.098279 6.025934 7.125000 0.000000 0.000000 
